<svg width="60" height="60" viewBox="0 0 60 60" fill="none" xmlns="http://www.w3.org/2000/svg">
<path d="M35.9866 44.3334H23.9999C21.7066 44.3334 19.9866 43.7201 18.9199 42.5068C17.8532 41.2934 17.4399 39.5334 17.7199 37.2534L18.9199 27.2534C19.2666 24.3068 20.0133 21.6667 25.2133 21.6667H34.8132C39.9999 21.6667 40.7466 24.3068 41.1066 27.2534L42.3066 37.2534C42.5732 39.5334 42.1733 41.3068 41.1066 42.5068C39.9999 43.7201 38.2933 44.3334 35.9866 44.3334ZM25.1999 23.6667C21.3599 23.6667 21.1732 25.1867 20.8932 27.4801L19.6933 37.4801C19.4933 39.1734 19.7332 40.4134 20.4132 41.1734C21.0932 41.9334 22.2932 42.3201 23.9999 42.3201H35.9866C37.6933 42.3201 38.8932 41.9334 39.5732 41.1734C40.2532 40.4134 40.4932 39.1734 40.2932 37.4801L39.0933 27.4801C38.8133 25.1734 38.6399 23.6667 34.7866 23.6667H25.1999Z" fill="#292D32"></path>
<path d="M35.3334 25.6667C34.7867 25.6667 34.3334 25.2134 34.3334 24.6667V20.0001C34.3334 18.5601 33.4401 17.6667 32.0001 17.6667H28.0001C26.5601 17.6667 25.6667 18.5601 25.6667 20.0001V24.6667C25.6667 25.2134 25.2134 25.6667 24.6667 25.6667C24.1201 25.6667 23.6667 25.2134 23.6667 24.6667V20.0001C23.6667 17.4534 25.4534 15.6667 28.0001 15.6667H32.0001C34.5467 15.6667 36.3334 17.4534 36.3334 20.0001V24.6667C36.3334 25.2134 35.8801 25.6667 35.3334 25.6667Z" fill="#292D32"></path>
<path d="M41.2134 37.7068H24.6667C24.1201 37.7068 23.6667 37.2535 23.6667 36.7068C23.6667 36.1601 24.1201 35.7068 24.6667 35.7068H41.2134C41.7601 35.7068 42.2134 36.1601 42.2134 36.7068C42.2134 37.2535 41.7601 37.7068 41.2134 37.7068Z" fill="#292D32"></path>
</svg>